<mxfile host="app.diagrams.net" modified="2024-07-11T07:05:50.576Z" agent="Mozilla/5.0 (Macintosh; Intel Mac OS X 10_15_7) AppleWebKit/537.36 (KHTML, like Gecko) Chrome/126.0.0.0 Safari/537.36" etag="KdN9NkCoHcTtO3bpcolL" version="24.6.4" type="device">
  <diagram name="페이지-1" id="KOh19ug340gx2M4w_G4C">
    <mxGraphModel dx="1781" dy="615" grid="1" gridSize="10" guides="1" tooltips="1" connect="1" arrows="1" fold="1" page="1" pageScale="1" pageWidth="827" pageHeight="1169" math="0" shadow="0">
      <root>
        <mxCell id="0" />
        <mxCell id="1" parent="0" />
        <mxCell id="HyCuDbk5J3wFjORHdMJ6-13" value="" style="edgeStyle=orthogonalEdgeStyle;rounded=0;orthogonalLoop=1;jettySize=auto;html=1;" parent="1" source="HyCuDbk5J3wFjORHdMJ6-1" target="HyCuDbk5J3wFjORHdMJ6-12" edge="1">
          <mxGeometry relative="1" as="geometry" />
        </mxCell>
        <mxCell id="HyCuDbk5J3wFjORHdMJ6-1" value="시작" style="ellipse;whiteSpace=wrap;html=1;" parent="1" vertex="1">
          <mxGeometry x="354" y="20" width="120" height="80" as="geometry" />
        </mxCell>
        <mxCell id="YJoZYMgmiX2J_byv7jkj-2" value="" style="edgeStyle=orthogonalEdgeStyle;rounded=0;orthogonalLoop=1;jettySize=auto;html=1;" parent="1" source="HyCuDbk5J3wFjORHdMJ6-12" target="YJoZYMgmiX2J_byv7jkj-1" edge="1">
          <mxGeometry relative="1" as="geometry" />
        </mxCell>
        <mxCell id="HyCuDbk5J3wFjORHdMJ6-12" value="숫자 1~45를 생성" style="whiteSpace=wrap;html=1;" parent="1" vertex="1">
          <mxGeometry x="271" y="180" width="286" height="90" as="geometry" />
        </mxCell>
        <mxCell id="HyCuDbk5J3wFjORHdMJ6-21" value="" style="edgeStyle=orthogonalEdgeStyle;rounded=0;orthogonalLoop=1;jettySize=auto;html=1;" parent="1" target="HyCuDbk5J3wFjORHdMJ6-20" edge="1">
          <mxGeometry relative="1" as="geometry">
            <mxPoint x="414" y="420" as="sourcePoint" />
          </mxGeometry>
        </mxCell>
        <mxCell id="HyCuDbk5J3wFjORHdMJ6-23" value="" style="edgeStyle=orthogonalEdgeStyle;rounded=0;orthogonalLoop=1;jettySize=auto;html=1;" parent="1" source="HyCuDbk5J3wFjORHdMJ6-20" target="HyCuDbk5J3wFjORHdMJ6-22" edge="1">
          <mxGeometry relative="1" as="geometry" />
        </mxCell>
        <mxCell id="HyCuDbk5J3wFjORHdMJ6-27" style="edgeStyle=orthogonalEdgeStyle;rounded=0;orthogonalLoop=1;jettySize=auto;html=1;exitX=1;exitY=0.5;exitDx=0;exitDy=0;entryX=1;entryY=0.5;entryDx=0;entryDy=0;" parent="1" source="HyCuDbk5J3wFjORHdMJ6-20" target="6U2sFkr6h7DayXP15vLO-1" edge="1">
          <mxGeometry relative="1" as="geometry">
            <mxPoint x="600" y="1090" as="targetPoint" />
            <Array as="points">
              <mxPoint x="650" y="645" />
              <mxPoint x="650" y="1095" />
            </Array>
          </mxGeometry>
        </mxCell>
        <mxCell id="HyCuDbk5J3wFjORHdMJ6-20" value="Set 컬렉션 내의 멤버 수가 6보다 큰가?" style="rhombus;whiteSpace=wrap;html=1;" parent="1" vertex="1">
          <mxGeometry x="264" y="560" width="300" height="170" as="geometry" />
        </mxCell>
        <mxCell id="HyCuDbk5J3wFjORHdMJ6-25" style="edgeStyle=orthogonalEdgeStyle;rounded=0;orthogonalLoop=1;jettySize=auto;html=1;exitX=0;exitY=0.5;exitDx=0;exitDy=0;" parent="1" source="HyCuDbk5J3wFjORHdMJ6-22" edge="1">
          <mxGeometry relative="1" as="geometry">
            <mxPoint x="414" y="510" as="targetPoint" />
            <Array as="points">
              <mxPoint x="190" y="890" />
              <mxPoint x="190" y="510" />
            </Array>
          </mxGeometry>
        </mxCell>
        <mxCell id="HyCuDbk5J3wFjORHdMJ6-22" value="Set 컬렉션의 첫번째 멤버를 제거한다." style="whiteSpace=wrap;html=1;" parent="1" vertex="1">
          <mxGeometry x="292" y="850" width="244" height="80" as="geometry" />
        </mxCell>
        <mxCell id="HyCuDbk5J3wFjORHdMJ6-24" value="Yes" style="text;strokeColor=none;fillColor=none;html=1;fontSize=24;fontStyle=1;verticalAlign=middle;align=center;" parent="1" vertex="1">
          <mxGeometry x="320" y="730" width="100" height="40" as="geometry" />
        </mxCell>
        <mxCell id="HyCuDbk5J3wFjORHdMJ6-28" value="No" style="text;strokeColor=none;fillColor=none;html=1;fontSize=24;fontStyle=1;verticalAlign=middle;align=center;" parent="1" vertex="1">
          <mxGeometry x="541" y="600" width="100" height="40" as="geometry" />
        </mxCell>
        <mxCell id="YJoZYMgmiX2J_byv7jkj-1" value="생성된 숫자를 Set 컬렉션에 저장" style="whiteSpace=wrap;html=1;" parent="1" vertex="1">
          <mxGeometry x="287" y="340" width="254" height="105" as="geometry" />
        </mxCell>
        <mxCell id="6U2sFkr6h7DayXP15vLO-3" value="" style="edgeStyle=orthogonalEdgeStyle;rounded=0;orthogonalLoop=1;jettySize=auto;html=1;" edge="1" parent="1" source="6U2sFkr6h7DayXP15vLO-1" target="6U2sFkr6h7DayXP15vLO-2">
          <mxGeometry relative="1" as="geometry" />
        </mxCell>
        <mxCell id="6U2sFkr6h7DayXP15vLO-5" value="" style="edgeStyle=orthogonalEdgeStyle;rounded=0;orthogonalLoop=1;jettySize=auto;html=1;" edge="1" parent="1" source="6U2sFkr6h7DayXP15vLO-1" target="6U2sFkr6h7DayXP15vLO-4">
          <mxGeometry relative="1" as="geometry" />
        </mxCell>
        <mxCell id="6U2sFkr6h7DayXP15vLO-1" value="myLottoNumber 와 Set 컬렉션의 멤버가&lt;div&gt;완전히 같은가?&lt;/div&gt;" style="rhombus;whiteSpace=wrap;html=1;" vertex="1" parent="1">
          <mxGeometry x="279" y="1000" width="270" height="190" as="geometry" />
        </mxCell>
        <mxCell id="6U2sFkr6h7DayXP15vLO-7" value="" style="edgeStyle=orthogonalEdgeStyle;rounded=0;orthogonalLoop=1;jettySize=auto;html=1;" edge="1" parent="1" source="6U2sFkr6h7DayXP15vLO-2" target="6U2sFkr6h7DayXP15vLO-6">
          <mxGeometry relative="1" as="geometry" />
        </mxCell>
        <mxCell id="6U2sFkr6h7DayXP15vLO-2" value="&lt;p style=&quot;margin: 0px; font-variant-numeric: normal; font-variant-east-asian: normal; font-variant-alternates: normal; font-kerning: auto; font-optical-sizing: auto; font-feature-settings: normal; font-variation-settings: normal; font-variant-position: normal; font-stretch: normal; line-height: normal; font-family: Menlo;&quot; class=&quot;p1&quot;&gt;&lt;span style=&quot;background-color: rgb(255, 255, 255);&quot;&gt;&quot;축하합니다! 겹치는 번호는\&lt;/span&gt;&lt;span class=&quot;s1&quot;&gt;(myLottoNumbers)&lt;/span&gt;&lt;span style=&quot;background-color: rgb(255, 255, 255);&quot;&gt; 입니다!&quot;&lt;/span&gt;&lt;br&gt;&lt;/p&gt;&lt;p style=&quot;margin: 0px; font-variant-numeric: normal; font-variant-east-asian: normal; font-variant-alternates: normal; font-kerning: auto; font-optical-sizing: auto; font-feature-settings: normal; font-variation-settings: normal; font-variant-position: normal; font-stretch: normal; line-height: normal; font-family: Menlo;&quot; class=&quot;p1&quot;&gt;&lt;span style=&quot;background-color: rgb(255, 255, 255);&quot;&gt;출력&lt;/span&gt;&lt;/p&gt;" style="whiteSpace=wrap;html=1;align=center;" vertex="1" parent="1">
          <mxGeometry x="226" y="1280" width="376" height="90" as="geometry" />
        </mxCell>
        <mxCell id="6U2sFkr6h7DayXP15vLO-8" style="edgeStyle=orthogonalEdgeStyle;rounded=0;orthogonalLoop=1;jettySize=auto;html=1;exitX=0.5;exitY=1;exitDx=0;exitDy=0;entryX=0;entryY=0.5;entryDx=0;entryDy=0;" edge="1" parent="1" source="6U2sFkr6h7DayXP15vLO-4" target="6U2sFkr6h7DayXP15vLO-6">
          <mxGeometry relative="1" as="geometry" />
        </mxCell>
        <mxCell id="6U2sFkr6h7DayXP15vLO-4" value="&lt;p style=&quot;margin: 0px; font-variant-numeric: normal; font-variant-east-asian: normal; font-variant-alternates: normal; font-kerning: auto; font-optical-sizing: auto; font-feature-settings: normal; font-variation-settings: normal; font-variant-position: normal; font-stretch: normal; line-height: normal; font-family: Menlo;&quot; class=&quot;p1&quot;&gt;&lt;span style=&quot;background-color: rgb(255, 255, 255);&quot;&gt;&quot;아쉽지만 겹치는 번호가 없습니다.&quot;&lt;/span&gt;&lt;/p&gt;&lt;p style=&quot;margin: 0px; font-variant-numeric: normal; font-variant-east-asian: normal; font-variant-alternates: normal; font-kerning: auto; font-optical-sizing: auto; font-feature-settings: normal; font-variation-settings: normal; font-variant-position: normal; font-stretch: normal; line-height: normal; font-family: Menlo;&quot; class=&quot;p1&quot;&gt;&lt;span style=&quot;background-color: rgb(255, 255, 255);&quot;&gt;출력&lt;/span&gt;&lt;/p&gt;" style="whiteSpace=wrap;html=1;align=center;" vertex="1" parent="1">
          <mxGeometry x="-70" y="1280" width="250" height="90" as="geometry" />
        </mxCell>
        <mxCell id="6U2sFkr6h7DayXP15vLO-6" value="끝" style="ellipse;whiteSpace=wrap;html=1;" vertex="1" parent="1">
          <mxGeometry x="327" y="1470" width="174" height="115" as="geometry" />
        </mxCell>
        <mxCell id="6U2sFkr6h7DayXP15vLO-9" value="Yes" style="text;strokeColor=none;fillColor=none;html=1;fontSize=24;fontStyle=1;verticalAlign=middle;align=center;" vertex="1" parent="1">
          <mxGeometry x="410" y="1190" width="100" height="40" as="geometry" />
        </mxCell>
        <mxCell id="6U2sFkr6h7DayXP15vLO-10" value="No" style="text;strokeColor=none;fillColor=none;html=1;fontSize=24;fontStyle=1;verticalAlign=middle;align=center;" vertex="1" parent="1">
          <mxGeometry x="192" y="1050" width="100" height="40" as="geometry" />
        </mxCell>
      </root>
    </mxGraphModel>
  </diagram>
</mxfile>
